<svg xmlns="http://www.w3.org/2000/svg" viewBox="0 0 960 540"><text transform="translate(380.938 17.258)" style="isolation:isolate;font-size:16.128999710083008px;font-family:ArialMT, Arial">benchmark 64: Comparison</text><text transform="translate(33.355 301.098) rotate(-90)" style="isolation:isolate;font-size:9.677399635314941px;font-family:ArialMT, Arial"><tspan style="letter-spacing:-0.01806318784873775em">A</tspan><tspan x="6.28" y="0">verage time (ns)</tspan></text><text transform="translate(499.238 511.581)" style="isolation:isolate;font-size:9.677399635314941px;font-family:ArialMT, Arial">Input</text><line x1="85" y1="52" x2="85" y2="473" style="fill:none;stroke:#000"/><text transform="translate(62.547 415.419)" style="isolation:isolate;font-size:9.677399635314941px;font-family:ArialMT, Arial">5.0</text><line x1="80" y1="413" x2="85" y2="413" style="fill:none;stroke:#000"/><text transform="translate(57.165 352.419)" style="isolation:isolate;font-size:9.677399635314941px;font-family:ArialMT, Arial">10.0</text><line x1="80" y1="350" x2="85" y2="350" style="fill:none;stroke:#000"/><text transform="translate(57.165 288.419)" style="isolation:isolate;font-size:9.677399635314941px;font-family:ArialMT, Arial">15.0</text><line x1="80" y1="286" x2="85" y2="286" style="fill:none;stroke:#000"/><text transform="translate(57.165 225.419)" style="isolation:isolate;font-size:9.677399635314941px;font-family:ArialMT, Arial">20.0</text><line x1="80" y1="223" x2="85" y2="223" style="fill:none;stroke:#000"/><text transform="translate(57.165 162.419)" style="isolation:isolate;font-size:9.677399635314941px;font-family:ArialMT, Arial">25.0</text><line x1="80" y1="160" x2="85" y2="160" style="fill:none;stroke:#000"/><text transform="translate(57.165 98.419)" style="isolation:isolate;font-size:9.677399635314941px;font-family:ArialMT, Arial">30.0</text><line x1="80" y1="96" x2="85" y2="96" style="fill:none;stroke:#000"/><line x1="86" y1="474" x2="933" y2="474" style="fill:none;stroke:#000"/><text transform="translate(165.273 491.355)" style="isolation:isolate;font-size:9.677399635314941px;font-family:ArialMT, Arial">5.0</text><line x1="172" y1="474" x2="172" y2="479" style="fill:none;stroke:#000"/><text transform="translate(271.582 491.355)" style="isolation:isolate;font-size:9.677399635314941px;font-family:ArialMT, Arial">10.0</text><line x1="281" y1="474" x2="281" y2="479" style="fill:none;stroke:#000"/><text transform="translate(380.583 491.355)" style="isolation:isolate;font-size:9.677399635314941px;font-family:ArialMT, Arial">15.0</text><line x1="390" y1="474" x2="390" y2="479" style="fill:none;stroke:#000"/><text transform="translate(488.583 491.355)" style="isolation:isolate;font-size:9.677399635314941px;font-family:ArialMT, Arial">20.0</text><line x1="498" y1="474" x2="498" y2="479" style="fill:none;stroke:#000"/><text transform="translate(597.583 491.355)" style="isolation:isolate;font-size:9.677399635314941px;font-family:ArialMT, Arial">25.0</text><line x1="607" y1="474" x2="607" y2="479" style="fill:none;stroke:#000"/><text transform="translate(705.583 491.355)" style="isolation:isolate;font-size:9.677399635314941px;font-family:ArialMT, Arial">30.0</text><line x1="715" y1="474" x2="715" y2="479" style="fill:none;stroke:#000"/><text transform="translate(814.583 491.355)" style="isolation:isolate;font-size:9.677399635314941px;font-family:ArialMT, Arial">35.0</text><line x1="824" y1="474" x2="824" y2="479" style="fill:none;stroke:#000"/><text transform="translate(923.583 491.355)" style="isolation:isolate;font-size:9.677399635314941px;font-family:ArialMT, Arial">40.0</text><line x1="933" y1="474" x2="933" y2="479" style="fill:none;stroke:#000"/><circle cx="86" cy="457" r="3" style="fill:#b22222"/><circle cx="107" cy="452" r="3" style="fill:#b22222"/><circle cx="129" cy="449" r="3" style="fill:#b22222"/><circle cx="151" cy="436" r="3" style="fill:#b22222"/><circle cx="172" cy="432" r="3" style="fill:#b22222"/><circle cx="194" cy="432" r="3" style="fill:#b22222"/><circle cx="216" cy="433" r="3" style="fill:#b22222"/><circle cx="238" cy="437" r="3" style="fill:#b22222"/><circle cx="259" cy="432" r="3" style="fill:#b22222"/><circle cx="281" cy="436" r="3" style="fill:#b22222"/><circle cx="303" cy="433" r="3" style="fill:#b22222"/><circle cx="324" cy="436" r="3" style="fill:#b22222"/><circle cx="346" cy="428" r="3" style="fill:#b22222"/><circle cx="368" cy="430" r="3" style="fill:#b22222"/><circle cx="390" cy="433" r="3" style="fill:#b22222"/><circle cx="411" cy="438" r="3" style="fill:#b22222"/><circle cx="433" cy="423" r="3" style="fill:#b22222"/><circle cx="476" cy="421" r="3" style="fill:#b22222"/><polyline points="86 457 107 452 129 449 151 436 172 432 194 432 216 433 238 437 259 432 281 436 303 433 324 436 346 428 368 430 390 433 411 438 433 423 476 421" style="fill:none;stroke:#b22222"/><circle cx="86" cy="455" r="3" style="fill:#2e8b57"/><circle cx="107" cy="444" r="3" style="fill:#2e8b57"/><circle cx="129" cy="441" r="3" style="fill:#2e8b57"/><circle cx="151" cy="433" r="3" style="fill:#2e8b57"/><circle cx="172" cy="438" r="3" style="fill:#2e8b57"/><circle cx="194" cy="436" r="3" style="fill:#2e8b57"/><circle cx="216" cy="436" r="3" style="fill:#2e8b57"/><circle cx="238" cy="436" r="3" style="fill:#2e8b57"/><circle cx="259" cy="433" r="3" style="fill:#2e8b57"/><circle cx="281" cy="438" r="3" style="fill:#2e8b57"/><circle cx="303" cy="434" r="3" style="fill:#2e8b57"/><circle cx="324" cy="433" r="3" style="fill:#2e8b57"/><circle cx="346" cy="436" r="3" style="fill:#2e8b57"/><circle cx="368" cy="434" r="3" style="fill:#2e8b57"/><circle cx="390" cy="437" r="3" style="fill:#2e8b57"/><circle cx="411" cy="441" r="3" style="fill:#2e8b57"/><circle cx="433" cy="413" r="3" style="fill:#2e8b57"/><circle cx="476" cy="409" r="3" style="fill:#2e8b57"/><polyline points="86 455 107 444 129 441 151 433 172 438 194 436 216 436 238 436 259 433 281 438 303 434 324 433 346 436 368 434 390 437 411 441 433 413 476 409" style="fill:none;stroke:#2e8b57"/><circle cx="86" cy="473" r="3" style="fill:#008b8b"/><circle cx="107" cy="463" r="3" style="fill:#008b8b"/><circle cx="129" cy="457" r="3" style="fill:#008b8b"/><circle cx="151" cy="449" r="3" style="fill:#008b8b"/><circle cx="172" cy="448" r="3" style="fill:#008b8b"/><circle cx="194" cy="447" r="3" style="fill:#008b8b"/><circle cx="216" cy="447" r="3" style="fill:#008b8b"/><circle cx="238" cy="449" r="3" style="fill:#008b8b"/><circle cx="259" cy="447" r="3" style="fill:#008b8b"/><circle cx="281" cy="449" r="3" style="fill:#008b8b"/><circle cx="303" cy="447" r="3" style="fill:#008b8b"/><circle cx="324" cy="447" r="3" style="fill:#008b8b"/><circle cx="346" cy="447" r="3" style="fill:#008b8b"/><circle cx="368" cy="448" r="3" style="fill:#008b8b"/><circle cx="390" cy="447" r="3" style="fill:#008b8b"/><circle cx="411" cy="452" r="3" style="fill:#008b8b"/><circle cx="433" cy="434" r="3" style="fill:#008b8b"/><circle cx="476" cy="432" r="3" style="fill:#008b8b"/><circle cx="498" cy="433" r="3" style="fill:#008b8b"/><polyline points="86 473 107 463 129 457 151 449 172 448 194 447 216 447 238 449 259 447 281 449 303 447 324 447 346 447 368 448 390 447 411 452 433 434 476 432 498 433" style="fill:none;stroke:#008b8b"/><circle cx="520" cy="381" r="3" style="fill:gold"/><circle cx="542" cy="370" r="3" style="fill:gold"/><circle cx="563" cy="368" r="3" style="fill:gold"/><circle cx="585" cy="352" r="3" style="fill:gold"/><circle cx="607" cy="347" r="3" style="fill:gold"/><circle cx="628" cy="348" r="3" style="fill:gold"/><circle cx="650" cy="347" r="3" style="fill:gold"/><circle cx="672" cy="352" r="3" style="fill:gold"/><circle cx="694" cy="349" r="3" style="fill:gold"/><circle cx="715" cy="349" r="3" style="fill:gold"/><circle cx="737" cy="347" r="3" style="fill:gold"/><circle cx="759" cy="350" r="3" style="fill:gold"/><circle cx="780" cy="348" r="3" style="fill:gold"/><circle cx="802" cy="348" r="3" style="fill:gold"/><circle cx="824" cy="348" r="3" style="fill:gold"/><circle cx="846" cy="353" r="3" style="fill:gold"/><circle cx="867" cy="337" r="3" style="fill:gold"/><circle cx="911" cy="337" r="3" style="fill:gold"/><circle cx="933" cy="335" r="3" style="fill:gold"/><polyline points="520 381 542 370 563 368 585 352 607 347 628 348 650 347 672 352 694 349 715 349 737 347 759 350 780 348 802 348 824 348 846 353 867 337 911 337 933 335" style="fill:none;stroke:gold"/><circle cx="86" cy="444" r="3" style="fill:#00008b"/><circle cx="107" cy="436" r="3" style="fill:#00008b"/><circle cx="129" cy="428" r="3" style="fill:#00008b"/><circle cx="151" cy="428" r="3" style="fill:#00008b"/><circle cx="172" cy="425" r="3" style="fill:#00008b"/><circle cx="194" cy="425" r="3" style="fill:#00008b"/><circle cx="216" cy="425" r="3" style="fill:#00008b"/><circle cx="238" cy="428" r="3" style="fill:#00008b"/><circle cx="259" cy="425" r="3" style="fill:#00008b"/><circle cx="281" cy="425" r="3" style="fill:#00008b"/><circle cx="303" cy="420" r="3" style="fill:#00008b"/><circle cx="324" cy="425" r="3" style="fill:#00008b"/><circle cx="346" cy="424" r="3" style="fill:#00008b"/><circle cx="368" cy="422" r="3" style="fill:#00008b"/><circle cx="390" cy="428" r="3" style="fill:#00008b"/><circle cx="411" cy="424" r="3" style="fill:#00008b"/><circle cx="433" cy="418" r="3" style="fill:#00008b"/><circle cx="476" cy="415" r="3" style="fill:#00008b"/><circle cx="498" cy="416" r="3" style="fill:#00008b"/><polyline points="86 444 107 436 129 428 151 428 172 425 194 425 216 425 238 428 259 425 281 425 303 420 324 425 346 424 368 422 390 428 411 424 433 418 476 415 498 416" style="fill:none;stroke:#00008b"/><circle cx="86" cy="438" r="3" style="fill:#dc143c"/><circle cx="107" cy="420" r="3" style="fill:#dc143c"/><circle cx="129" cy="425" r="3" style="fill:#dc143c"/><circle cx="151" cy="430" r="3" style="fill:#dc143c"/><circle cx="172" cy="425" r="3" style="fill:#dc143c"/><circle cx="194" cy="425" r="3" style="fill:#dc143c"/><circle cx="216" cy="425" r="3" style="fill:#dc143c"/><circle cx="238" cy="430" r="3" style="fill:#dc143c"/><circle cx="259" cy="425" r="3" style="fill:#dc143c"/><circle cx="281" cy="430" r="3" style="fill:#dc143c"/><circle cx="303" cy="420" r="3" style="fill:#dc143c"/><circle cx="324" cy="438" r="3" style="fill:#dc143c"/><circle cx="346" cy="438" r="3" style="fill:#dc143c"/><circle cx="368" cy="438" r="3" style="fill:#dc143c"/><circle cx="390" cy="444" r="3" style="fill:#dc143c"/><circle cx="411" cy="445" r="3" style="fill:#dc143c"/><circle cx="433" cy="428" r="3" style="fill:#dc143c"/><circle cx="476" cy="428" r="3" style="fill:#dc143c"/><polyline points="86 438 107 420 129 425 151 430 172 425 194 425 216 425 238 430 259 425 281 430 303 420 324 438 346 438 368 438 390 444 411 445 433 428 476 428" style="fill:none;stroke:#dc143c"/><circle cx="86" cy="438" r="3" style="fill:#8b008b"/><circle cx="107" cy="420" r="3" style="fill:#8b008b"/><circle cx="129" cy="428" r="3" style="fill:#8b008b"/><circle cx="151" cy="430" r="3" style="fill:#8b008b"/><circle cx="172" cy="420" r="3" style="fill:#8b008b"/><circle cx="194" cy="422" r="3" style="fill:#8b008b"/><circle cx="216" cy="427" r="3" style="fill:#8b008b"/><circle cx="238" cy="426" r="3" style="fill:#8b008b"/><circle cx="259" cy="422" r="3" style="fill:#8b008b"/><circle cx="281" cy="422" r="3" style="fill:#8b008b"/><circle cx="303" cy="423" r="3" style="fill:#8b008b"/><circle cx="324" cy="431" r="3" style="fill:#8b008b"/><circle cx="346" cy="435" r="3" style="fill:#8b008b"/><circle cx="368" cy="438" r="3" style="fill:#8b008b"/><circle cx="390" cy="431" r="3" style="fill:#8b008b"/><circle cx="411" cy="440" r="3" style="fill:#8b008b"/><circle cx="433" cy="421" r="3" style="fill:#8b008b"/><circle cx="476" cy="417" r="3" style="fill:#8b008b"/><polyline points="86 438 107 420 129 428 151 430 172 420 194 422 216 427 238 426 259 422 281 422 303 423 324 431 346 435 368 438 390 431 411 440 433 421 476 417" style="fill:none;stroke:#8b008b"/><circle cx="86" cy="442" r="3" style="fill:#00ff7f"/><circle cx="107" cy="430" r="3" style="fill:#00ff7f"/><circle cx="129" cy="431" r="3" style="fill:#00ff7f"/><circle cx="151" cy="441" r="3" style="fill:#00ff7f"/><circle cx="172" cy="436" r="3" style="fill:#00ff7f"/><circle cx="194" cy="435" r="3" style="fill:#00ff7f"/><circle cx="216" cy="434" r="3" style="fill:#00ff7f"/><circle cx="238" cy="435" r="3" style="fill:#00ff7f"/><circle cx="259" cy="432" r="3" style="fill:#00ff7f"/><circle cx="281" cy="432" r="3" style="fill:#00ff7f"/><circle cx="303" cy="431" r="3" style="fill:#00ff7f"/><circle cx="324" cy="438" r="3" style="fill:#00ff7f"/><circle cx="346" cy="438" r="3" style="fill:#00ff7f"/><circle cx="368" cy="438" r="3" style="fill:#00ff7f"/><circle cx="390" cy="445" r="3" style="fill:#00ff7f"/><circle cx="411" cy="447" r="3" style="fill:#00ff7f"/><circle cx="433" cy="429" r="3" style="fill:#00ff7f"/><circle cx="476" cy="436" r="3" style="fill:#00ff7f"/><circle cx="498" cy="433" r="3" style="fill:#00ff7f"/><polyline points="86 442 107 430 129 431 151 441 172 436 194 435 216 434 238 435 259 432 281 432 303 431 324 438 346 438 368 438 390 445 411 447 433 429 476 436 498 433" style="fill:none;stroke:#00ff7f"/><circle cx="520" cy="282" r="3" style="fill:#b22222"/><circle cx="542" cy="273" r="3" style="fill:#b22222"/><circle cx="563" cy="262" r="3" style="fill:#b22222"/><circle cx="585" cy="253" r="3" style="fill:#b22222"/><circle cx="607" cy="244" r="3" style="fill:#b22222"/><circle cx="628" cy="233" r="3" style="fill:#b22222"/><circle cx="650" cy="227" r="3" style="fill:#b22222"/><circle cx="672" cy="213" r="3" style="fill:#b22222"/><circle cx="694" cy="203" r="3" style="fill:#b22222"/><circle cx="715" cy="192" r="3" style="fill:#b22222"/><circle cx="737" cy="182" r="3" style="fill:#b22222"/><circle cx="759" cy="164" r="3" style="fill:#b22222"/><circle cx="780" cy="160" r="3" style="fill:#b22222"/><circle cx="802" cy="52" r="3" style="fill:#b22222"/><circle cx="824" cy="139" r="3" style="fill:#b22222"/><circle cx="846" cy="62" r="3" style="fill:#b22222"/><circle cx="867" cy="118" r="3" style="fill:#b22222"/><circle cx="911" cy="90" r="3" style="fill:#b22222"/><circle cx="933" cy="86" r="3" style="fill:#b22222"/><polyline points="520 282 542 273 563 262 585 253 607 244 628 233 650 227 672 213 694 203 715 192 737 182 759 164 780 160 802 52 824 139 846 62 867 118 911 90 933 86" style="fill:none;stroke:#b22222"/><circle cx="86" cy="428" r="3" style="fill:#2e8b57"/><circle cx="107" cy="421" r="3" style="fill:#2e8b57"/><circle cx="129" cy="415" r="3" style="fill:#2e8b57"/><circle cx="151" cy="403" r="3" style="fill:#2e8b57"/><circle cx="172" cy="402" r="3" style="fill:#2e8b57"/><circle cx="194" cy="387" r="3" style="fill:#2e8b57"/><circle cx="216" cy="379" r="3" style="fill:#2e8b57"/><circle cx="238" cy="374" r="3" style="fill:#2e8b57"/><circle cx="259" cy="366" r="3" style="fill:#2e8b57"/><circle cx="281" cy="361" r="3" style="fill:#2e8b57"/><circle cx="303" cy="356" r="3" style="fill:#2e8b57"/><circle cx="324" cy="350" r="3" style="fill:#2e8b57"/><circle cx="346" cy="344" r="3" style="fill:#2e8b57"/><circle cx="368" cy="331" r="3" style="fill:#2e8b57"/><circle cx="390" cy="329" r="3" style="fill:#2e8b57"/><circle cx="411" cy="265" r="3" style="fill:#2e8b57"/><circle cx="433" cy="254" r="3" style="fill:#2e8b57"/><circle cx="476" cy="234" r="3" style="fill:#2e8b57"/><polyline points="86 428 107 421 129 415 151 403 172 402 194 387 216 379 238 374 259 366 281 361 303 356 324 350 346 344 368 331 390 329 411 265 433 254 476 234" style="fill:none;stroke:#2e8b57"/><circle cx="86" cy="425" r="3" style="fill:#008b8b"/><circle cx="107" cy="414" r="3" style="fill:#008b8b"/><circle cx="129" cy="403" r="3" style="fill:#008b8b"/><circle cx="151" cy="393" r="3" style="fill:#008b8b"/><circle cx="172" cy="382" r="3" style="fill:#008b8b"/><circle cx="194" cy="371" r="3" style="fill:#008b8b"/><circle cx="216" cy="360" r="3" style="fill:#008b8b"/><circle cx="238" cy="350" r="3" style="fill:#008b8b"/><circle cx="259" cy="338" r="3" style="fill:#008b8b"/><circle cx="281" cy="328" r="3" style="fill:#008b8b"/><circle cx="303" cy="317" r="3" style="fill:#008b8b"/><circle cx="324" cy="306" r="3" style="fill:#008b8b"/><circle cx="346" cy="296" r="3" style="fill:#008b8b"/><circle cx="368" cy="285" r="3" style="fill:#008b8b"/><circle cx="390" cy="274" r="3" style="fill:#008b8b"/><circle cx="411" cy="306" r="3" style="fill:#008b8b"/><circle cx="433" cy="297" r="3" style="fill:#008b8b"/><circle cx="476" cy="280" r="3" style="fill:#008b8b"/><polyline points="86 425 107 414 129 403 151 393 172 382 194 371 216 360 238 350 259 338 281 328 303 317 324 306 346 296 368 285 390 274 411 306 433 297 476 280" style="fill:none;stroke:#008b8b"/><circle cx="86" cy="450" r="3" style="fill:gold"/><circle cx="107" cy="441" r="3" style="fill:gold"/><circle cx="129" cy="438" r="3" style="fill:gold"/><circle cx="151" cy="430" r="3" style="fill:gold"/><circle cx="172" cy="426" r="3" style="fill:gold"/><circle cx="194" cy="420" r="3" style="fill:gold"/><circle cx="216" cy="414" r="3" style="fill:gold"/><circle cx="238" cy="406" r="3" style="fill:gold"/><circle cx="259" cy="401" r="3" style="fill:gold"/><circle cx="281" cy="395" r="3" style="fill:gold"/><circle cx="303" cy="389" r="3" style="fill:gold"/><circle cx="324" cy="382" r="3" style="fill:gold"/><circle cx="346" cy="376" r="3" style="fill:gold"/><circle cx="368" cy="369" r="3" style="fill:gold"/><circle cx="390" cy="362" r="3" style="fill:gold"/><circle cx="411" cy="354" r="3" style="fill:gold"/><circle cx="433" cy="313" r="3" style="fill:gold"/><circle cx="476" cy="293" r="3" style="fill:gold"/><circle cx="498" cy="284" r="3" style="fill:gold"/><polyline points="86 450 107 441 129 438 151 430 172 426 194 420 216 414 238 406 259 401 281 395 303 389 324 382 346 376 368 369 390 362 411 354 433 313 476 293 498 284" style="fill:none;stroke:gold"/><text transform="translate(131 74.355)" style="isolation:isolate;font-size:9.677399635314941px;font-family:ArialMT, Arial">parse i64</text><text transform="translate(131 89.355)" style="isolation:isolate;font-size:9.677399635314941px;font-family:ArialMT, Arial">parse neg i64</text><text transform="translate(131 104.355)" style="isolation:isolate;font-size:9.677399635314941px;font-family:ArialMT, Arial">parse u64</text><text transform="translate(749 321.355)" style="isolation:isolate;font-size:9.677399635314941px;font-family:ArialMT, Arial">parse_skipped +zeroes u64</text><text transform="translate(547 417.355)" style="isolation:isolate;font-size:9.677399635314941px;font-family:ArialMT, Arial">parse_skipped u64</text><text transform="translate(131 120.355)" style="isolation:isolate;font-size:9.677399635314941px;font-family:ArialMT, Arial">parse_until_invalid i64</text><text transform="translate(131 135.355)" style="isolation:isolate;font-size:9.677399635314941px;font-family:ArialMT, Arial">parse_until_invalid neg i64</text><text transform="translate(131 150.355)" style="isolation:isolate;font-size:9.677399635314941px;font-family:ArialMT, Arial">parse_until_invalid u64</text><text transform="translate(680 146.355)" style="isolation:isolate;font-size:9.677399635314941px;font-family:ArialMT, Arial">str +zeroes u64</text><text transform="translate(433 188.355)" style="isolation:isolate;font-size:9.677399635314941px;font-family:ArialMT, Arial">str i64</text><text transform="translate(433 203.355)" style="isolation:isolate;font-size:9.677399635314941px;font-family:ArialMT, Arial">str neg i64</text><text transform="translate(433 218.355)" style="isolation:isolate;font-size:9.677399635314941px;font-family:ArialMT, Arial">str u64</text><rect x="101" y="67" width="20" height="10" style="fill:#b22222"/><rect x="101" y="82" width="20" height="10" style="fill:#2e8b57"/><rect x="101" y="97" width="20" height="10" style="fill:#008b8b"/><rect x="719" y="314" width="20" height="10" style="fill:gold"/><rect x="517" y="410" width="20" height="10" style="fill:#00008b"/><rect x="101" y="113" width="20" height="10" style="fill:#dc143c"/><rect x="101" y="128" width="20" height="10" style="fill:#8b008b"/><rect x="101" y="143" width="20" height="10" style="fill:#00ff7f"/><rect x="650" y="139" width="20" height="10" style="fill:#b22222"/><rect x="403" y="181" width="20" height="10" style="fill:#2e8b57"/><rect x="403" y="196" width="20" height="10" style="fill:#008b8b"/><rect x="403" y="211" width="20" height="10" style="fill:gold"/></svg>